<?xml version="1.0" standalone="no"?><!DOCTYPE svg PUBLIC "-//W3C//DTD SVG 1.1//EN" "http://www.w3.org/Graphics/SVG/1.1/DTD/svg11.dtd"><svg t="1742787608940" class="icon" viewBox="0 0 1024 1024" version="1.1" xmlns="http://www.w3.org/2000/svg" p-id="8170" xmlns:xlink="http://www.w3.org/1999/xlink" width="200" height="200"><path d="M945 773.4h-58.6c-3 27-21 61.6-66 61.6-41 0-70.6-28.4-99-71.6 88.4-68.4 149.4-175 149.4-306C871 222.4 677.6 64 474 64 274.6 64 78.6 223.4 78.6 457.4c0 268.2 262.6 443.2 498 378C616 902.6 668 960 767 960c163.6 0 181.6-150.6 178-186.6zM658 658.4C619 600 570.6 554 475 554c-61 0-108.6 20-138 45.6l24.4 48.6c12.4-6 26-8 39.6-8 71 0 107.4 61.6 138.4 122.6-20 6-41.4 8.4-65.4 8.4-150 0-215-106-215-313.4C259 249 324 142 474 142c152.4 0 217.4 107 217.4 315.4 0.2 83.6-10.8 151.2-33.4 201z" fill="#515151" p-id="8171"></path></svg>